inDegrees=yes
name=ik_data_2024_11_07_19_01
DataType=double
version=3
OpenSimVersion=4.5.1
endheader
time	pelvis_tilt	pelvis_list	pelvis_rotation	pelvis_tx	pelvis_ty	pelvis_tz	hip_flexion_r	hip_adduction_r	hip_rotation_r	knee_angle_r	knee_angle_r_beta	ankle_angle_r	subtalar_angle_r	mtp_angle_r	hip_flexion_l	hip_adduction_l	hip_rotation_l	knee_angle_l	knee_angle_l_beta	ankle_angle_l	subtalar_angle_l	mtp_angle_l	lumbar_extension	lumbar_bending	lumbar_rotation	arm_flex_r	arm_add_r	arm_rot_r	elbow_flex_r	pro_sup_r	wrist_flex_r	wrist_dev_r	arm_flex_l	arm_add_l	arm_rot_l	elbow_flex_l	pro_sup_l	wrist_flex_l	wrist_dev_l
10.0349	-0.1759402936726017	-0.1450384348748888	-12.06840174471244	0	0.9399999999999999	0	1.117643963715892	-3.57389643153115	0.8314359564583946	3.4930419512516	0.06096508295962769	-5.032310706014382	0	0	0.4373330541894626	-0.1948814291668392	-0.9272837753679207	0.5469806926587091	0.009546614031733651	-5.032310706014382	0	0	0	0	0	0	-5.410115134950121	0	63.29988307276147	47.90304244603689	0	0	0	-5.410115134950121	0	63.29988307276147	47.90304244603689	0	0
10.09333	-0.1227533509957569	0.06753498812664774	-10.9211296116434	0	0.9399999999999999	0	0.5481960803368782	-3.795392404988709	-0.3231404485332825	3.389588401459587	0.05915947789288115	-5.032258156746901	0	0	0.4248936175176067	0.0350394138495316	0.2131897664964003	0.5403682175643191	0.009431204569630421	-5.032258156746901	0	0	0	0	0	0	-5.411919246234831	0	63.30422333400842	47.9001534170061	0	0	0	-5.411919246234831	0	63.30422333400842	47.9001534170061	0	0
10.1453	-0.1338281840361621	0.278354831285807	-9.861325742350839	0	0.9399999999999999	0	0.1678711550241143	-3.939158176815321	-1.378035200035405	3.252751860170006	0.05677122971033681	-5.032213280651969	0	0	0.4720137638585855	0.2460060710079913	1.281742371104685	0.5430563429273771	0.009478121207922153	-5.032213280651969	0	0	0	0	0	0	-5.413477761513139	0	63.3079598974824	47.89767905445385	0	0	0	-5.413477761513139	0	63.3079598974824	47.89767905445385	0	0
10.21318	-0.05521522957744231	0.311747166139458	-9.609962240419671	0	0.9399999999999999	0	-0.03799822430998862	-3.835731700277574	-1.660692902975893	3.247791533773638	0.0566846556827466	-5.032165654205355	0	0	0.3687179037790073	0.2913763947524267	1.531665406151493	0.5233004132051483	0.00913331518747665	-5.032165654205355	0	0	0	0	0	0	-5.415095183231106	0	63.31186687991786	47.89506549710887	0	0	0	-5.415095183231106	0	63.31186687991786	47.89506549710887	0	0
10.21589	-0.01927633520801816	0.1660747995839361	-10.45706633125405	0	0.9399999999999999	0	0.03490505770259033	-3.516800425259954	-0.8452584463195343	3.352829105109034	0.05851790714084767	-5.032122379617284	0	0	0.3177899451698757	0.1568972825907931	0.6834219332221664	0.518210517041631	0.009044479740838647	-5.032122379617284	0	0	0	0	0	0	-5.41660724756057	0	63.31548688901037	47.89267476216685	0	0	0	-5.41660724756057	0	63.31548688901037	47.89267476216685	0	0
10.2613	0.1023539795279709	0.007982594510651767	-11.27137331105917	0	0.9399999999999999	0	0.2284034846023481	-3.135041430214595	-0.08568655772786236	3.566931803192763	0.0622547041598121	-5.032081251735239	0	0	0.1562052202629775	0.02309802265182841	-0.1307128113165995	0.507396909725838	0.008855746689160312	-5.032081251735239	0	0	0	0	0	0	-5.418033243546736	0	63.31891027919536	47.89040591728089	0	0	0	-5.418033243546736	0	63.31891027919536	47.89040591728089	0	0
10.32844	0.1872111647777091	-0.2540048536911185	-12.60283663262944	0	0.9399999999999999	0	0.3205448895225667	-2.622237551501306	1.186162151282316	3.78842547103399	0.06612049793596018	-5.032025714285684	0	0	0.02764672106785945	-0.2189111209105614	-1.460549960844754	0.5091653285267173	0.008886611419789825	-5.032025714285684	0	0	0	0	0	0	-5.419960609984987	0	63.32353685441763	47.88734081647628	0	0	0	-5.419960609984987	0	63.32353685441763	47.88734081647628	0	0
10.39247	0.1840445955774491	-0.1341972322064914	-12.02565433173815	0	0.9399999999999999	0	0.2496904795955432	-2.581550217075497	0.6145549395632479	3.647087491067944	0.0636536848274349	-5.031984075641359	0	0	0.07474751971066307	-0.1086454011785276	-0.8952890115247557	0.5311775820609361	0.009270797719745703	-5.031984075641359	0	0	0	0	0	0	-5.421412137775639	0	63.32701771549834	47.8850393789676	0	0	0	-5.421412137775639	0	63.32701771549834	47.8850393789676	0	0
